# xmcd
#
# Track frame offsets: 
#        150
#        9552
#        18843
#        32871
#        46453
#        56747
#        65313
#        79006
#        90749
#        99427
#        108439
#        117451
#        128079
#        142441
#        151398
#        163754
#
# Disc length: 2321 seconds
#
# Revision: 0
# Processed by: cddbd v1.5.2PL0 Copyright (c) Steve Scherf et al.
# Submitted via: ExactAudioCopyFreeDBPlugin 1.0
#
DISCID=d7090f10
DTITLE=Leo Fontaine - Memories That Never Die
DYEAR=2006
DGENRE=Country
TTITLE0=Are You Teasin' Me (Carl Smith)
TTITLE1=Blackboard of My Heart (Hank Thompson)
TTITLE2=Blue Eyes Cryin' In The Rain (Traditional)
TTITLE3=Seal Our Parting With A Kiss (Hank Snow)
TTITLE4=Don't Let Your Sweet Love Die (Jim Eanes)
TTITLE5=Donna On My Mind (Wynn Stewart)
TTITLE6=Filipino Rose (Hank Snow)
TTITLE7=Half As Much (Hank Williams)
TTITLE8=Honky Tonk Girl (Hank Thompson, Johnny Cash)
TTITLE9=I Wonder How The Old Folks Are At Home (Mac Wiseman version)
TTITLE10=I'd Dreamed Of An Old Love Affair (Barry and Holly Tashian)
TTITLE11=Golden River (Hank Snow)
TTITLE12=I Love You (Lefty Frizzell)
TTITLE13=My Tears Don't Show (Roy Acuff)
TTITLE14=Memories That Never Die (Wilf Carter)
TTITLE15=Rubber Dolly (Instrumental)
EXTD=
EXTT0=
EXTT1=
EXTT2=
EXTT3=
EXTT4=
EXTT5=
EXTT6=
EXTT7=
EXTT8=
EXTT9=
EXTT10=
EXTT11=
EXTT12=
EXTT13=
EXTT14=
EXTT15=
PLAYORDER=
